<svg viewBox="0 0 16 16" xmlns="http://www.w3.org/2000/svg" id="Layer_2"><defs><style>.cls-1{fill:navy;}</style></defs><g id="Layer_1-2"><path d="M8,0C3.58,0,0,3.58,0,8s3.58,8,8,8,8-3.58,8-8S12.42,0,8,0Zm3.68,8.62c-.7,.7-1.54,1.05-2.53,1.05h-2.47c-.3,0-.54,.24-.54,.54v2.56c0,.18-.06,.36-.19,.5-.14,.15-.31,.23-.52,.23s-.36-.07-.49-.21c-.14-.13-.21-.3-.21-.49v-3.78c0-.19,.06-.38,.19-.52,.14-.15,.31-.23,.51-.23h3.72c.6,0,1.12-.21,1.54-.64,.43-.43,.64-.95,.64-1.55s-.21-1.12-.64-1.55c-.42-.42-.94-.64-1.54-.64h-3.72c-.19,0-.36-.07-.49-.21-.14-.14-.21-.3-.21-.5s.07-.35,.21-.49c.13-.14,.3-.21,.49-.21h3.72c.99,0,1.83,.35,2.53,1.05,.71,.71,1.06,1.55,1.06,2.54s-.35,1.84-1.06,2.54Zm-6.95-2.53c0-.46,.38-.84,.84-.84s.84,.38,.84,.84-.38,.84-.84,.84-.84-.38-.84-.84Z" class="cls-1"></path></g></svg>