<svg xml:space="preserve" style="enable-background:new 0 0 16 16;" viewBox="0 0 16 16" y="0px" x="0px" xmlns:xlink="http://www.w3.org/1999/xlink" xmlns="http://www.w3.org/2000/svg" id="Layer_2_00000119118445588985461400000007434502923289941693_" version="1.1">
<style type="text/css">
	.st0{fill:#000080;}
	.st1{fill:#FFFFFF;}
</style>
<g id="Layer_1-2">
	<path d="M8,0C3.6,0,0,3.6,0,8s3.6,8,8,8s8-3.6,8-8S12.4,0,8,0z" class="st0"></path>
</g>
<path d="M11.7,8.6C11,9.3,10.1,9.7,9.2,9.7H6.7c-0.3,0-0.5,0.2-0.5,0.5v2.6c0,0.2-0.1,0.4-0.2,0.5
	c-0.1,0.1-0.3,0.2-0.5,0.2s-0.4-0.1-0.5-0.2c-0.1-0.1-0.2-0.3-0.2-0.5V9c0-0.2,0.1-0.4,0.2-0.5c0.1-0.1,0.3-0.2,0.5-0.2h3.7
	c0.6,0,1.1-0.2,1.5-0.6c0.4-0.4,0.6-0.9,0.6-1.5S11.1,5,10.7,4.5c-0.4-0.4-0.9-0.6-1.5-0.6H5.4c-0.2,0-0.4-0.1-0.5-0.2
	C4.8,3.5,4.7,3.4,4.7,3.2s0.1-0.3,0.2-0.5c0.1-0.1,0.3-0.2,0.5-0.2h3.7c1,0,1.8,0.3,2.5,1c0.7,0.7,1.1,1.6,1.1,2.5
	S12.4,7.9,11.7,8.6L11.7,8.6z" class="st1"></path>
<circle r="0.8" cy="6.1" cx="5.6" class="st1"></circle>
</svg>
